<svg width="28" height="28" viewBox="0 0 28 28" fill="none" xmlns="http://www.w3.org/2000/svg">
<path fill-rule="evenodd" clip-rule="evenodd" d="M2.80249 20.0765C2.80249 21.3575 3.84094 22.3959 5.12193 22.3959H23.6775C24.9585 22.3959 25.9969 21.3575 25.9969 20.0765" fill="#F64174"/>
<path fill-rule="evenodd" clip-rule="evenodd" d="M2.80249 20.0765V8.55551C2.80249 8.12782 3.03793 7.73486 3.41501 7.53306C3.7921 7.33126 4.24965 7.35339 4.60551 7.59063L9.76082 11.0274L13.4348 5.51644C13.6499 5.1938 14.012 5 14.3998 5C14.7875 5 15.1496 5.1938 15.3647 5.51644L19.0386 11.0274L24.1939 7.59058C24.5498 7.35334 25.0073 7.33122 25.3844 7.53303C25.7615 7.73484 25.9969 8.12782 25.9969 8.55551V20.0765" fill="#F64174"/>
</svg>
