<svg width="20" height="20" viewBox="0 0 20 20" fill="none" xmlns="http://www.w3.org/2000/svg">
<path d="M15.3033 4.6967C18.2322 7.62563 18.2322 12.3744 15.3033 15.3033C12.3743 18.2322 7.62562 18.2322 4.6967 15.3033C1.76777 12.3743 1.76777 7.62562 4.6967 4.6967C7.62563 1.76777 12.3744 1.76777 15.3033 4.6967" stroke="white" stroke-width="1.25" stroke-linecap="round" stroke-linejoin="round"/>
<path d="M11.1784 8.8215C11.8293 9.47237 11.8293 10.5276 11.1784 11.1785C10.5276 11.8294 9.47228 11.8294 8.82141 11.1785C8.17053 10.5276 8.17053 9.47237 8.82141 8.8215C9.47228 8.17062 10.5276 8.17062 11.1784 8.8215" stroke="white" stroke-width="1.25" stroke-linecap="round" stroke-linejoin="round"/>
<path d="M12.5 5.67416C13.7633 6.40583 14.6742 7.6725 14.925 9.16666" stroke="white" stroke-width="1.25" stroke-linecap="round" stroke-linejoin="round"/>
<path d="M7.5002 14.3258C6.23686 13.5933 5.32603 12.3267 5.0752 10.8333" stroke="white" stroke-width="1.25" stroke-linecap="round" stroke-linejoin="round"/>
</svg>
