<svg width="32" height="32" viewBox="0 0 32 32" fill="none" xmlns="http://www.w3.org/2000/svg">
<path d="M28 17.4227V25.296C28 26.7894 26.7987 28 25.316 28H6.684C5.20133 28 4 26.7894 4 25.296V8.03737C4 6.54404 5.20133 5.33337 6.684 5.33337H16" stroke="#FDA70F" stroke-width="2" stroke-linecap="round" stroke-linejoin="round"/>
<path d="M10.4373 22.896L15.4119 21.652C15.6466 21.5933 15.8599 21.472 16.0319 21.3013L27.2186 10.1146C28.2599 9.07329 28.2599 7.38528 27.2186 6.34395L26.9893 6.11462C25.9479 5.07328 24.2599 5.07328 23.2186 6.11462L12.0319 17.3013C11.8613 17.472 11.7399 17.6866 11.6813 17.9213L10.4373 22.896" stroke="#FDA70F" stroke-width="2" stroke-linecap="round" stroke-linejoin="round"/>
<path d="M21.1064 8.22668L25.1064 12.2267" stroke="#FDA70F" stroke-width="2" stroke-linecap="round" stroke-linejoin="round"/>
<path d="M15.3944 21.656C15.4131 21.5147 15.4371 21.3747 15.4371 21.228C15.4371 19.3867 13.9451 17.8947 12.1038 17.8947C11.9571 17.8947 11.8171 17.92 11.6758 17.9373" stroke="#FDA70F" stroke-width="2" stroke-linecap="round" stroke-linejoin="round"/>
</svg>
