<svg width="25" height="24" viewBox="0 0 25 24" fill="none" xmlns="http://www.w3.org/2000/svg">
<path d="M20.8176 16.9862L18.1387 14.3207L19.0317 13.4277L21.6973 16.0933L20.8176 16.9862ZM17.2991 16.9929C16.3395 16.9929 15.5221 16.7841 14.8468 16.3665C14.1715 15.9445 13.6539 15.358 13.2941 14.6072C12.9387 13.8564 12.761 12.9857 12.761 11.995C12.761 11.0043 12.9387 10.1335 13.2941 9.38274C13.6539 8.63194 14.1715 8.04774 14.8468 7.63014C15.5221 7.20809 16.3395 6.99707 17.2991 6.99707C18.2543 6.99707 19.0695 7.20809 19.7447 7.63014C20.4245 8.04774 20.942 8.63194 21.2974 9.38274C21.6528 10.1335 21.8305 11.0043 21.8305 11.995C21.8305 12.9857 21.6528 13.8564 21.2974 14.6072C20.942 15.358 20.4245 15.9445 19.7447 16.3665C19.0695 16.7841 18.2543 16.9929 17.2991 16.9929ZM17.2991 15.6668C17.9788 15.6757 18.543 15.5268 18.9917 15.2203C19.4449 14.9093 19.7847 14.4784 20.0113 13.9275C20.2379 13.3722 20.3512 12.728 20.3512 11.995C20.3512 11.262 20.2379 10.6222 20.0113 10.0758C19.7847 9.52491 19.4449 9.0962 18.9917 8.78966C18.543 8.48312 17.9788 8.32763 17.2991 8.32318C16.6194 8.3143 16.0529 8.46313 15.5998 8.76966C15.1511 9.0762 14.8135 9.50714 14.5869 10.0625C14.3603 10.6178 14.2448 11.262 14.2404 11.995C14.2359 12.728 14.347 13.37 14.5736 13.9209C14.8001 14.4673 15.14 14.8938 15.5931 15.2003C16.0507 15.5069 16.6194 15.6623 17.2991 15.6668Z" fill="white"/>
<path d="M3.29883 16.793V7.19699H4.69158V11.3353H9.48958V7.19699H10.889V16.793H9.48958V12.6481H4.69158V16.793H3.29883Z" fill="white"/>
</svg>
