<svg width="32" height="32" viewBox="0 0 32 32" fill="none" xmlns="http://www.w3.org/2000/svg">
<rect x="1" y="1" width="30" height="30" rx="5.4" stroke="white" stroke-width="2" stroke-linecap="round" stroke-linejoin="round"/>
<path d="M24.5171 20.9862L21.8382 18.3207L22.7312 17.4277L25.3967 20.0933L24.5171 20.9862ZM20.9986 20.9929C20.039 20.9929 19.2215 20.7841 18.5462 20.3665C17.871 19.9445 17.3534 19.358 16.9936 18.6072C16.6382 17.8564 16.4604 16.9857 16.4604 15.995C16.4604 15.0043 16.6382 14.1335 16.9936 13.3827C17.3534 12.6319 17.871 12.0477 18.5462 11.6301C19.2215 11.2081 20.039 10.9971 20.9986 10.9971C21.9537 10.9971 22.7689 11.2081 23.4442 11.6301C24.1239 12.0477 24.6415 12.6319 24.9969 13.3827C25.3523 14.1335 25.53 15.0043 25.53 15.995C25.53 16.9857 25.3523 17.8564 24.9969 18.6072C24.6415 19.358 24.1239 19.9445 23.4442 20.3665C22.7689 20.7841 21.9537 20.9929 20.9986 20.9929ZM20.9986 19.6668C21.6783 19.6757 22.2425 19.5268 22.6912 19.2203C23.1443 18.9093 23.4842 18.4784 23.7108 17.9275C23.9373 17.3722 24.0506 16.728 24.0506 15.995C24.0506 15.262 23.9373 14.6222 23.7108 14.0758C23.4842 13.5249 23.1443 13.0962 22.6912 12.7897C22.2425 12.4831 21.6783 12.3276 20.9986 12.3232C20.3188 12.3143 19.7524 12.4631 19.2993 12.7697C18.8506 13.0762 18.5129 13.5071 18.2864 14.0625C18.0598 14.6178 17.9443 15.262 17.9398 15.995C17.9354 16.728 18.0465 17.37 18.273 17.9209C18.4996 18.4673 18.8395 18.8938 19.2926 19.2003C19.7502 19.5069 20.3188 19.6623 20.9986 19.6668Z" fill="white"/>
<path d="M6.99878 20.793V11.197H8.39153V15.3353H13.1895V11.197H14.589V20.793H13.1895V16.6481H8.39153V20.793H6.99878Z" fill="white"/>
</svg>
