<svg width="137" height="24" viewBox="0 0 137 24" fill="none" xmlns="http://www.w3.org/2000/svg">
<path d="M31.75 8.43912C31.75 8.43912 32.2076 6 35.0243 6H43.372C43.372 6 43.8454 8.43912 41.0681 8.43912H31.75ZM31.75 10.8098H41.4626C41.4626 10.8098 41.9281 13.189 39.135 13.189H33.6988V17.9817H31.7658L31.75 10.8098Z" fill="#FDA70F"/>
<path d="M46.5516 6.34241V14.4044C46.5526 14.5711 46.5862 14.7356 46.6502 14.8872C46.714 15.0388 46.8068 15.174 46.9223 15.284C47.0378 15.394 47.1735 15.4761 47.3203 15.5251C47.4672 15.5741 47.622 15.5888 47.7746 15.5683H53.124C53.2774 15.5838 53.4322 15.5644 53.5783 15.5111C53.7243 15.4579 53.8585 15.3721 53.9722 15.2593C54.0859 15.1464 54.1766 15.009 54.2384 14.8559C54.3002 14.7027 54.3318 14.5373 54.3311 14.3701V9.6117C54.3297 9.44627 54.2965 9.28306 54.2336 9.13235C54.1708 8.98163 54.0797 8.84684 53.9661 8.73652C53.8525 8.62621 53.7189 8.54276 53.5739 8.49158C53.4289 8.44032 53.2757 8.42252 53.124 8.43921H46.9856C44.2004 8.43921 44.6659 6.0172 44.6659 6.0172H52.9741C53.4019 5.98023 53.8321 6.04244 54.236 6.19992C54.6399 6.3573 55.0083 6.60627 55.3165 6.93011C55.6248 7.25396 55.866 7.64542 56.0239 8.07822C56.1819 8.5111 56.2531 8.97547 56.2326 9.44053V14.4985C56.2578 14.9682 56.1897 15.4383 56.033 15.877C55.8762 16.3157 55.6345 16.7128 55.3241 17.0414C55.0136 17.37 54.6418 17.6225 54.2336 17.7817C53.8255 17.941 53.3906 18.0034 52.9583 17.9646H47.8771C47.4485 17.999 47.018 17.9344 46.6141 17.775C46.2102 17.6155 45.8421 17.365 45.5341 17.0397C45.2261 16.7146 44.9852 16.3222 44.8274 15.8886C44.6696 15.4549 44.5984 14.9898 44.6186 14.5242V6.34241H46.5516Z" fill="#FDA70F"/>
<path d="M74.2534 6.19692V14.3701C74.2503 14.5365 74.2803 14.7016 74.3402 14.8547C74.4002 15.0078 74.4893 15.1454 74.6014 15.2586C74.7142 15.3717 74.8476 15.4578 74.9927 15.5111C75.1379 15.5645 75.2918 15.584 75.4448 15.5683H80.7942C80.9473 15.5838 81.1027 15.5644 81.2487 15.5111C81.3947 15.4579 81.5288 15.3721 81.6424 15.2593C81.756 15.1464 81.8468 15.009 81.9083 14.8559C81.9706 14.7027 82.0022 14.5373 82.0014 14.3701V9.6117C81.9998 9.44627 81.9667 9.28306 81.9036 9.13235C81.8412 8.98163 81.7497 8.84684 81.6361 8.73652C81.5225 8.62621 81.3891 8.54276 81.244 8.49158C81.0988 8.44032 80.9457 8.42252 80.7942 8.43921H74.6637C71.8707 8.43921 72.2967 6.0172 72.2967 6.0172H80.6759C81.1035 5.98023 81.5335 6.04244 81.9375 6.19992C82.3415 6.3573 82.7099 6.60627 83.0184 6.93011C83.3269 7.25396 83.5676 7.64542 83.7254 8.07822C83.884 8.5111 83.955 8.97547 83.9345 9.44053V14.4985C83.9597 14.9682 83.8918 15.4383 83.7348 15.877C83.5778 16.3157 83.3364 16.7128 83.0255 17.0414C82.7154 17.37 82.3438 17.6225 81.9351 17.7817C81.5272 17.941 81.0925 18.0034 80.6601 17.9646H75.579C75.1474 18.0007 74.7142 17.9364 74.3079 17.776C73.9008 17.6156 73.5307 17.3629 73.2214 17.0348C72.9121 16.7066 72.6707 16.3106 72.5145 15.8731C72.3575 15.4357 72.2888 14.9671 72.3125 14.4985V6.19692H74.2534Z" fill="#FDA70F"/>
<path d="M60.4855 6.01686C63.2312 9.53434 66.6003 12.4955 67.7127 13.9162C69.5196 16.2526 68.3439 17.99 68.3439 17.99L60.454 9.23479V17.99H58.5051V6.0083L60.4855 6.01686ZM70.1429 17.9985H68.2177V6.01686H70.1586L70.1429 17.9985Z" fill="#FDA70F"/>
<path d="M96.314 8.43861H87.0432C84.258 8.43861 84.7236 6.0166 84.7236 6.0166H96.314V8.43861ZM91.4774 10.8093V17.9897H89.5286V10.8093H91.4774Z" fill="#FDA70F"/>
<path d="M112.315 17.99H110.39V6.0083H112.315V10.7325L118.95 6.0083H121.996L112.315 13.1887V17.99ZM113.893 9.6028L115.21 10.9978L121.854 17.9814H118.698C118.698 17.9814 113.632 12.4099 113.348 12.0847C113.015 11.5593 112.866 10.9216 112.93 10.2875L113.893 9.6028Z" fill="#FDA70F"/>
<path d="M123.195 17.99L127.7 6.0083H132.237L136.75 17.99H134.336L130.714 8.43887H129.207L126.509 15.568H131.408C131.408 15.568 131.874 17.99 129.081 17.99H123.195Z" fill="#FDA70F"/>
<path d="M99.462 14.3703V13.232C99.8723 13.232 103.565 13.232 104.89 13.232C107.676 13.232 107.21 10.81 107.21 10.81H99.5725V9.09834C99.5725 9.01105 99.5883 8.92469 99.6198 8.84416C99.6506 8.76363 99.6964 8.69062 99.7532 8.62926C99.8108 8.56798 99.8786 8.51963 99.9528 8.48702C100.028 8.45441 100.107 8.43824 100.188 8.43935H106.815C109.609 8.43935 109.127 6.01734 109.127 6.01734H100.788C100.121 5.95564 99.4541 6.12886 98.8853 6.51124C98.3164 6.89363 97.8769 7.46473 97.6315 8.13981C97.5716 8.3061 97.5424 8.48334 97.5448 8.66187V14.5243C97.5219 14.9933 97.5921 15.4622 97.7499 15.8996C97.9077 16.3369 98.1491 16.7328 98.4592 17.0608C98.7693 17.3889 99.1393 17.6414 99.5464 17.8017C99.9536 17.962 100.388 18.0264 100.819 17.9905H109.175V15.5513H100.638C100.488 15.5643 100.336 15.5435 100.194 15.49C100.052 15.4365 99.9212 15.3515 99.8108 15.2405C99.7003 15.1295 99.6127 14.9949 99.5528 14.8451C99.492 14.6953 99.4612 14.5336 99.462 14.3703Z" fill="#FDA70F"/>
<path d="M0.25 8V13.1292C0.25 13.5062 0.327597 13.8795 0.478361 14.2279C0.629126 14.5761 0.850105 14.8926 1.12868 15.1592C1.40726 15.4257 1.73797 15.6372 2.10195 15.7815C2.46592 15.9258 2.85603 16 3.25 16V8H0.25Z" fill="#FDA70F"/>
<path d="M25.75 16V10.8758C25.75 10.4981 25.6724 10.1242 25.5216 9.77526C25.3708 9.42635 25.1499 9.10936 24.8713 8.84231C24.5927 8.57526 24.262 8.36341 23.898 8.21892C23.5341 8.07438 23.1439 8 22.75 8V16H25.75Z" fill="#FDA70F"/>
<path d="M17.8599 6.56998C17.6958 6.57173 17.532 6.55371 17.3722 6.51639V21.1953C17.3722 21.9348 17.666 22.6441 18.1889 23.1675C18.7119 23.6909 19.4213 23.9856 20.1616 23.9868V4.27048C20.1622 4.57264 20.1031 4.87195 19.9877 5.15125C19.8723 5.4305 19.7027 5.68428 19.4889 5.89791C19.275 6.11159 19.021 6.28093 18.7415 6.39625C18.4619 6.51161 18.1623 6.57066 17.8599 6.56998Z" fill="#FDA70F"/>
<path d="M19.8153 3.80797H20.1079C20.0012 2.76382 19.5105 1.79636 18.7308 1.09289C17.9512 0.389429 16.938 0 15.8874 0C14.8368 0 13.8236 0.389429 13.0439 1.09289C12.2642 1.79636 11.7735 2.76382 11.6668 3.80797C11.649 3.95342 11.6408 4.0999 11.6424 4.24644V19.8169C11.641 19.9426 11.6295 20.0681 11.6083 20.192C11.5291 20.847 11.2125 21.4503 10.7183 21.888C10.2242 22.3256 9.58661 22.5673 8.92624 22.5673C8.26587 22.5673 7.62838 22.3256 7.1342 21.888C6.64002 21.4503 6.32344 20.847 6.2442 20.192H5.97926C6.08596 21.2361 6.54902 22.2036 7.32872 22.9071C8.10841 23.6105 9.12159 24 10.1722 24C11.2228 24 12.236 23.6105 13.0156 22.9071C13.7953 22.2036 14.286 21.2361 14.3927 20.192C14.4106 20.0465 14.4187 19.9001 14.4171 19.7535V4.1831C14.4186 4.05736 14.43 3.93192 14.4513 3.80797C14.5305 3.15298 14.8471 2.54966 15.3413 2.11202C15.8354 1.67437 16.4729 1.43271 17.1333 1.43271C17.7937 1.43271 18.4312 1.67437 18.9253 2.11202C19.4195 2.54966 19.7362 3.15298 19.8153 3.80797Z" fill="#FDA70F"/>
<path d="M8.22891 17.4244C8.3932 17.4248 8.55685 17.4444 8.71655 17.4828V2.79908C8.71592 2.43208 8.64282 2.0688 8.50155 1.73004C8.36023 1.39128 8.15342 1.08368 7.89297 0.824844C7.63257 0.566012 7.3236 0.361026 6.98376 0.221615C6.64397 0.0822045 6.27994 0.0111054 5.9126 0.0123869V19.7239C5.91323 19.4208 5.9737 19.1209 6.09049 18.8413C6.20733 18.5616 6.3782 18.3077 6.59335 18.0941C6.8085 17.8806 7.06368 17.7115 7.34437 17.5965C7.62501 17.4816 7.92559 17.4231 8.22891 17.4244Z" fill="#FDA70F"/>
<path d="M15.5456 4.28387C15.5456 4.89206 15.7884 5.47548 16.2207 5.90644C16.6531 6.3374 17.24 6.58081 17.8527 6.58338C18.018 6.58511 18.1827 6.56711 18.3436 6.52979C18.7517 6.44239 19.1283 6.2472 19.4338 5.96485C19.7393 5.6825 19.9622 5.32349 20.0791 4.92576C20.196 4.52803 20.2024 4.10635 20.0977 3.7053C19.993 3.30425 19.7811 2.93871 19.4843 2.64733C19.1876 2.35594 18.817 2.14957 18.4118 2.04994C18.0066 1.95036 17.5818 1.96127 17.1824 2.08151C16.7829 2.20175 16.4236 2.42683 16.1423 2.73307C15.8612 3.03927 15.6685 3.41518 15.5848 3.82104C15.557 3.97373 15.5438 4.12871 15.5456 4.28387Z" fill="#FDA70F"/>
<path d="M5.82812 19.6537C5.82812 19.3505 5.88855 19.0503 6.00587 18.7704C6.12324 18.4904 6.29525 18.2363 6.51193 18.0226C6.72865 17.8088 6.98583 17.6397 7.26862 17.5251C7.55142 17.4104 7.8543 17.3523 8.15982 17.3543C8.3252 17.3541 8.49004 17.3737 8.65071 17.4127C9.05726 17.5009 9.43229 17.6965 9.7362 17.9787C10.0401 18.2609 10.2616 18.6193 10.3774 19.016C10.4932 19.4128 10.4989 19.8332 10.394 20.2329C10.289 20.6326 10.0773 20.9968 9.78121 21.287C9.48506 21.5773 9.11553 21.7828 8.71148 21.8819C8.30748 21.9811 7.88395 21.9701 7.48569 21.8502C7.08739 21.7304 6.72909 21.506 6.4486 21.2009C6.16811 20.8957 5.97578 20.5212 5.89194 20.1165C5.85291 19.9652 5.83146 19.8099 5.82812 19.6537Z" fill="#FDA70F"/>
</svg>
