<svg width="20" height="20" viewBox="0 0 20 20" fill="none" xmlns="http://www.w3.org/2000/svg">
<path fill-rule="evenodd" clip-rule="evenodd" d="M5.04258 10.9175L8.41841 7.54167C8.41758 5.67834 6.90675 4.16667 5.04258 4.16667C3.17841 4.16667 1.66675 5.67834 1.66675 7.54251C1.66675 9.40667 3.17841 10.9175 5.04258 10.9175Z" stroke="white" stroke-width="1.25" stroke-linecap="round" stroke-linejoin="round"/>
<path d="M8.22078 7.73917L12.4383 13.3175C12.6699 13.6242 12.6399 14.0542 12.3683 14.3258L11.8249 14.8692C11.5533 15.1408 11.1233 15.17 10.8166 14.9392L5.23828 10.7217" stroke="white" stroke-width="1.25" stroke-linecap="round" stroke-linejoin="round"/>
<path d="M18.3333 9.16667L16.8783 7.71167C16.0858 6.91917 14.8017 6.91917 14.0092 7.71167V7.71167C13.2167 8.50417 13.2167 9.78834 14.0092 10.5808L15.0608 11.6325L16.065 12.6367C16.8833 13.455 16.8833 14.7825 16.065 15.6008V15.6008C15.2467 16.4192 13.9192 16.4192 13.1008 15.6008L12.0967 14.5967" stroke="white" stroke-width="1.25" stroke-linecap="round" stroke-linejoin="round"/>
</svg>
