<svg width="25" height="24" viewBox="0 0 25 24" fill="none" xmlns="http://www.w3.org/2000/svg">
<path d="M15.8601 13.1236L7.24247 19.6393C6.76871 19.9959 6.10482 19.9498 5.68482 19.5312L4.84447 18.6919C4.4252 18.2717 4.37954 17.6068 4.73743 17.1332L11.2521 8.51566M5.264 19.1111L3.37122 21.0039M21.2616 7.09006C20.7096 4.57093 18.3998 2.83309 15.8263 3.00065C13.2529 3.16821 11.188 5.1909 10.9673 7.76034C10.9497 8.0478 11.0594 8.32845 11.2674 8.52766L15.8483 13.1086C16.0471 13.3165 16.3275 13.4263 16.6146 13.4087C18.1105 13.2783 19.4779 12.5102 20.3675 11.3006C21.2571 10.0909 21.5829 8.55684 21.2616 7.09006Z" stroke="url(#paint0_linear_227_34004)" stroke-width="1.5" stroke-linecap="round" stroke-linejoin="round"/>
<defs>
<linearGradient id="paint0_linear_227_34004" x1="5.14338" y1="2.99879" x2="5.14338" y2="17.7942" gradientUnits="userSpaceOnUse">
<stop stop-color="#F53183"/>
<stop offset="1" stop-color="#FDA70F"/>
</linearGradient>
</defs>
</svg>
