<svg width="25" height="24" viewBox="0 0 25 24" fill="none" xmlns="http://www.w3.org/2000/svg">
<path fill-rule="evenodd" clip-rule="evenodd" d="M21.2617 7.08994C20.7097 4.57081 18.3999 2.83297 15.8265 3.00053C13.253 3.16809 11.1881 5.19078 10.9674 7.76022C10.9498 8.04768 11.0595 8.32833 11.2675 8.52754L15.8485 13.1084C16.0473 13.3164 16.3276 13.4262 16.6148 13.4086C18.1107 13.2782 19.478 12.5101 20.3676 11.3005C21.2572 10.0908 21.583 8.55672 21.2617 7.08994V7.08994Z" stroke="#B5B5B5" stroke-width="1.5" stroke-linecap="round" stroke-linejoin="round"/>
<path d="M15.8604 13.1234L7.24284 19.6391C6.76907 19.9957 6.10519 19.9497 5.68519 19.5311L4.84484 18.6917C4.42556 18.2715 4.3799 17.6067 4.7378 17.1331L11.2525 8.5155" stroke="#B5B5B5" stroke-width="1.5" stroke-linecap="round" stroke-linejoin="round"/>
<path d="M5.264 19.111L3.37122 21.0038" stroke="#B5B5B5" stroke-width="1.5" stroke-linecap="round" stroke-linejoin="round"/>
</svg>
