<svg width="25" height="24" viewBox="0 0 25 24" fill="none" xmlns="http://www.w3.org/2000/svg">
<path d="M9.37488 17.781V7.96403C9.37488 7.54903 9.63088 7.17703 10.0189 7.03003L18.5189 3.79203C19.1739 3.54203 19.8749 4.02603 19.8749 4.72603V15.775M19.1426 14.0072C20.119 14.9835 20.119 16.5664 19.1426 17.5428C18.1663 18.5191 16.5834 18.5191 15.6071 17.5428C14.6308 16.5664 14.6308 14.9835 15.6071 14.0072C16.5834 13.0309 18.1663 13.0309 19.1426 14.0072ZM8.64264 16.0072C9.61895 16.9835 9.61895 18.5664 8.64264 19.5428C7.66633 20.5191 6.08342 20.5191 5.10711 19.5428C4.1308 18.5664 4.1308 16.9835 5.10711 16.0072C6.08342 15.0309 7.66633 15.0309 8.64264 16.0072Z" stroke="#B5B5B5" stroke-width="1.5" stroke-linecap="round" stroke-linejoin="round"/>
</svg>
