<svg width="25" height="24" viewBox="0 0 25 24" fill="none" xmlns="http://www.w3.org/2000/svg">
<path d="M9.375 17.781V7.96396C9.375 7.54896 9.631 7.17696 10.019 7.02996L18.519 3.79196C19.174 3.54196 19.875 4.02596 19.875 4.72596V15.775M19.1428 14.0072C20.1191 14.9835 20.1191 16.5664 19.1428 17.5427C18.1665 18.519 16.5835 18.519 15.6072 17.5427C14.6309 16.5664 14.6309 14.9835 15.6072 14.0072C16.5835 13.0309 18.1665 13.0309 19.1428 14.0072ZM8.64276 16.0072C9.61907 16.9835 9.61907 18.5664 8.64276 19.5427C7.66645 20.519 6.08354 20.519 5.10723 19.5427C4.13092 18.5664 4.13092 16.9835 5.10723 16.0072C6.08354 15.0309 7.66645 15.0309 8.64276 16.0072Z" stroke="url(#paint0_linear_227_29698)" stroke-width="1.5" stroke-linecap="round" stroke-linejoin="round"/>
<defs>
<linearGradient id="paint0_linear_227_29698" x1="5.90007" y1="3.73381" x2="5.90007" y2="17.3262" gradientUnits="userSpaceOnUse">
<stop stop-color="#F53183"/>
<stop offset="1" stop-color="#FDA70F"/>
</linearGradient>
</defs>
</svg>
