<svg width="81" height="80" viewBox="0 0 81 80" fill="none" xmlns="http://www.w3.org/2000/svg">
<path fill-rule="evenodd" clip-rule="evenodd" d="M80.5 40C80.5 62.0914 62.5914 80 40.5 80C18.4086 80 0.5 62.0914 0.5 40C0.5 17.9086 18.4086 0 40.5 0C62.5914 0 80.5 17.9086 80.5 40ZM46.7498 27C48.4067 27 49.7498 28.3431 49.7498 30V50C49.7498 51.6569 48.4067 53 46.7498 53C45.0929 53 43.7498 51.6569 43.7498 50V30C43.7498 28.3431 45.0929 27 46.7498 27ZM36.4167 30C36.4167 28.3431 35.0735 27 33.4167 27C31.7598 27 30.4167 28.3431 30.4167 30V50C30.4167 51.6569 31.7598 53 33.4167 53C35.0735 53 36.4167 51.6569 36.4167 50V30Z" fill="white"/>
</svg>
