<svg width="25" height="24" viewBox="0 0 25 24" fill="none" xmlns="http://www.w3.org/2000/svg">
<path d="M6.125 5H18.125M8.125 2H16.125M10.375 17.862V13.039C10.375 12.63 10.624 12.262 11.004 12.111L14.504 10.711C15.161 10.448 15.875 10.932 15.875 11.639V16.862M19.965 22H4.285C3.092 22 2.125 21.033 2.125 19.84V10.16C2.125 8.967 3.092 8 4.285 8H19.965C21.158 8 22.125 8.967 22.125 10.16V19.84C22.125 21.033 21.158 22 19.965 22ZM9.93566 16.8013C10.5214 17.3871 10.5214 18.3368 9.93566 18.9226C9.34987 19.5084 8.40013 19.5084 7.81434 18.9226C7.22855 18.3368 7.22855 17.3871 7.81434 16.8013C8.40013 16.2155 9.34987 16.2155 9.93566 16.8013ZM15.4357 15.8013C16.0214 16.3871 16.0214 17.3368 15.4357 17.9226C14.8499 18.5084 13.9001 18.5084 13.3143 17.9226C12.7286 17.3368 12.7286 16.3871 13.3143 15.8013C13.9001 15.2155 14.8499 15.2155 15.4357 15.8013Z" stroke="url(#paint0_linear_227_27646)" stroke-width="1.5" stroke-linecap="round" stroke-linejoin="round"/>
<defs>
<linearGradient id="paint0_linear_227_27646" x1="4.09283" y1="2.01031" x2="4.09283" y2="18.4366" gradientUnits="userSpaceOnUse">
<stop stop-color="#F53183"/>
<stop offset="1" stop-color="#FDA70F"/>
</linearGradient>
</defs>
</svg>
