<svg width="25" height="24" viewBox="0 0 25 24" fill="none" xmlns="http://www.w3.org/2000/svg">
<rect x="3.62122" y="6.99792" width="18.0075" height="14.0058" rx="3" stroke="#B5B5B5" stroke-width="1.5" stroke-linecap="round" stroke-linejoin="round"/>
<path d="M10.401 13.7008C10.3536 13.7005 10.308 13.7193 10.2745 13.753C10.241 13.7866 10.2224 13.8323 10.223 13.8798C10.2226 13.9529 10.2664 14.019 10.3339 14.0471C10.4014 14.0752 10.4792 14.0596 10.5307 14.0078C10.5823 13.956 10.5974 13.8781 10.5689 13.8108C10.5405 13.7434 10.4741 13.6999 10.401 13.7008" stroke="#B5B5B5" stroke-width="1.5" stroke-linecap="round" stroke-linejoin="round"/>
<path d="M10.401 10.8205C10.3537 10.8205 10.3084 10.8394 10.2751 10.8731C10.2418 10.9067 10.2234 10.9523 10.2239 10.9996C10.2235 11.0727 10.2674 11.1388 10.3349 11.1668C10.4024 11.1949 10.4802 11.1794 10.5317 11.1275C10.5833 11.0757 10.5983 10.9979 10.5699 10.9305C10.5415 10.8632 10.4751 10.8197 10.402 10.8205" stroke="#B5B5B5" stroke-width="1.5" stroke-linecap="round" stroke-linejoin="round"/>
<path d="M10.401 16.8229C10.3537 16.8229 10.3084 16.8419 10.2751 16.8755C10.2418 16.9092 10.2234 16.9547 10.2239 17.002C10.2235 17.0751 10.2674 17.1412 10.3349 17.1693C10.4024 17.1974 10.4802 17.1818 10.5317 17.13C10.5833 17.0782 10.5983 17.0003 10.5699 16.9329C10.5415 16.8656 10.4751 16.8221 10.402 16.8229" stroke="#B5B5B5" stroke-width="1.5" stroke-linecap="round" stroke-linejoin="round"/>
<path d="M7.64692 12.4111C7.59817 12.4968 7.62789 12.6058 7.71341 12.6549C7.79893 12.704 7.90805 12.6748 7.9575 12.5895C8.00696 12.5041 7.97813 12.3949 7.89302 12.3451C7.85176 12.3206 7.80239 12.3139 7.75606 12.3263C7.70974 12.3387 7.67039 12.3693 7.64692 12.4111" stroke="#B5B5B5" stroke-width="1.5" stroke-linecap="round" stroke-linejoin="round"/>
<path d="M12.8451 15.4134C12.8214 15.4545 12.8151 15.5033 12.8277 15.549C12.8403 15.5947 12.8707 15.6334 12.9121 15.6565C12.9751 15.6926 13.0536 15.6872 13.1109 15.6427C13.1683 15.5982 13.1931 15.5235 13.1738 15.4536C13.1545 15.3836 13.0949 15.3322 13.0229 15.3234C12.9509 15.3146 12.8806 15.3502 12.8451 15.4134" stroke="#B5B5B5" stroke-width="1.5" stroke-linecap="round" stroke-linejoin="round"/>
<path d="M7.64796 15.5925C7.69803 15.6776 7.80742 15.7061 7.89261 15.6563C7.9778 15.6065 8.00668 15.4972 7.95719 15.4119C7.90771 15.3265 7.79852 15.2973 7.71299 15.3464C7.62711 15.3965 7.59801 15.5066 7.64796 15.5925" stroke="#B5B5B5" stroke-width="1.5" stroke-linecap="round" stroke-linejoin="round"/>
<path d="M12.8471 12.5913C12.8706 12.6326 12.9097 12.6628 12.9557 12.6748C13.0016 12.6869 13.0505 12.6798 13.0912 12.6553C13.154 12.6189 13.1886 12.5483 13.1789 12.4764C13.1692 12.4045 13.117 12.3456 13.0469 12.3272C12.9767 12.3088 12.9023 12.3345 12.8586 12.3924C12.8148 12.4502 12.8103 12.5288 12.8471 12.5913" stroke="#B5B5B5" stroke-width="1.5" stroke-linecap="round" stroke-linejoin="round"/>
<path d="M16.3766 10.9336H18.3774" stroke="#B5B5B5" stroke-width="1.5" stroke-linecap="round" stroke-linejoin="round"/>
<path d="M16.3766 13.9348H18.3774" stroke="#B5B5B5" stroke-width="1.5" stroke-linecap="round" stroke-linejoin="round"/>
<path d="M21.6288 18.0025V10.0081C21.629 8.6087 20.7335 7.36621 19.4058 6.92385L7.62292 2.99622" stroke="#B5B5B5" stroke-width="1.5" stroke-linecap="round" stroke-linejoin="round"/>
</svg>
