<svg width="25" height="24" viewBox="0 0 25 24" fill="none" xmlns="http://www.w3.org/2000/svg">
<path d="M10.4005 10.8206C10.3532 10.8206 10.3079 10.8395 10.2746 10.8732C10.2413 10.9068 10.2229 10.9524 10.2235 10.9997C10.2231 11.0728 10.2669 11.1389 10.3344 11.1669C10.4019 11.195 10.4797 11.1795 10.5312 11.1276C10.5828 11.0758 10.5979 10.9979 10.5694 10.9306C10.541 10.8633 10.4746 10.8198 10.4015 10.8206M10.4005 16.8231C10.3532 16.8231 10.3079 16.842 10.2746 16.8757C10.2413 16.9093 10.2229 16.9549 10.2235 17.0022C10.2231 17.0753 10.2669 17.1414 10.3344 17.1694C10.4019 17.1975 10.4797 17.182 10.5312 17.1301C10.5828 17.0783 10.5979 17.0004 10.5694 16.9331C10.541 16.8658 10.4746 16.8223 10.4015 16.8231M7.71329 12.6551C7.62777 12.606 7.59804 12.497 7.6468 12.4113C7.67027 12.3694 7.70962 12.3389 7.75594 12.3264C7.80226 12.314 7.85164 12.3208 7.8929 12.3452C7.97801 12.3951 8.00684 12.5043 7.95738 12.5896C7.90793 12.6749 7.7988 12.7042 7.71329 12.6551ZM7.71329 12.6551C7.64578 12.627 7.60195 12.5609 7.60235 12.4878C7.60182 12.4405 7.62024 12.395 7.6535 12.3613C7.68677 12.3277 7.73211 12.3088 7.77942 12.3088M7.71329 12.6551C7.78079 12.6832 7.85856 12.6676 7.91011 12.6158C7.96166 12.564 7.97675 12.4861 7.94831 12.4188C7.91986 12.3514 7.85353 12.3079 7.78042 12.3088M13.1108 15.6428C13.0535 15.6872 12.9749 15.6927 12.912 15.6566C12.8706 15.6335 12.8402 15.5948 12.8276 15.5491C12.815 15.5034 12.8213 15.4545 12.845 15.4135C12.8805 15.3502 12.9507 15.3147 13.0228 15.3235C13.0948 15.3323 13.1544 15.3837 13.1737 15.4537C13.193 15.5236 13.1681 15.5983 13.1108 15.6428ZM13.1108 15.6428C13.0592 15.6946 12.9815 15.7101 12.914 15.6821C12.8465 15.654 12.8026 15.5879 12.803 15.5148C12.8025 15.4675 12.8209 15.4219 12.8542 15.3883C12.8875 15.3546 12.9328 15.3357 12.9801 15.3357M13.1108 15.6428C13.1623 15.5909 13.1774 15.5131 13.149 15.4457C13.1205 15.3784 13.0542 15.3349 12.9811 15.3357M7.95671 15.4119C8.00619 15.4972 7.97731 15.6065 7.89212 15.6563C7.80694 15.7061 7.69754 15.6776 7.64748 15.5926C7.59752 15.5067 7.62663 15.3965 7.7125 15.3465C7.79803 15.2973 7.90723 15.3265 7.95671 15.4119ZM7.95671 15.4119C7.98515 15.4792 7.97006 15.5571 7.91851 15.6089C7.86696 15.6608 7.78919 15.6763 7.72169 15.6482C7.65418 15.6202 7.61035 15.5541 7.61075 15.481C7.61021 15.4337 7.62863 15.3881 7.6619 15.3545C7.69517 15.3208 7.74051 15.3019 7.78782 15.3019M7.95671 15.4119C7.92826 15.3445 7.86192 15.3011 7.78882 15.3019M16.376 10.9336H18.3768M16.376 13.9349H18.3768M21.6284 18.0026V10.0083C21.6286 8.60883 20.7331 7.36633 19.4055 6.92397L7.62256 2.99634M13.0008 12.2974C12.9535 12.2974 12.9081 12.3163 12.8749 12.3499C12.8416 12.3836 12.8232 12.4291 12.8237 12.4764C12.8233 12.5495 12.8672 12.6156 12.9347 12.6437C13.0022 12.6718 13.0799 12.6562 13.1315 12.6044C13.183 12.5526 13.1981 12.4747 13.1697 12.4074C13.1412 12.34 13.0749 12.2966 13.0018 12.2974M10.4005 13.6801C10.3532 13.6801 10.3079 13.699 10.2746 13.7327C10.2413 13.7663 10.2229 13.8119 10.2235 13.8592C10.2231 13.9323 10.2669 13.9984 10.3344 14.0264C10.4019 14.0545 10.4797 14.039 10.5312 13.9871C10.5828 13.9353 10.5979 13.8574 10.5694 13.7901C10.541 13.7228 10.4746 13.6793 10.4015 13.6801M6.62109 21.0039H18.6286C20.2854 21.0039 21.6286 19.6607 21.6286 18.0038V9.99802C21.6286 8.34116 20.2854 6.99802 18.6286 6.99802H6.62109C4.96424 6.99802 3.62109 8.34116 3.62109 9.99802V18.0039C3.62109 19.6607 4.96424 21.0039 6.62109 21.0039ZM10.4006 13.7008C10.3531 13.7005 10.3075 13.7193 10.274 13.753C10.2405 13.7867 10.2219 13.8324 10.2225 13.8799C10.2221 13.953 10.2659 14.0191 10.3334 14.0471C10.4009 14.0752 10.4787 14.0597 10.5302 14.0078C10.5818 13.956 10.5969 13.8781 10.5684 13.8108C10.54 13.7434 10.4737 13.7 10.4006 13.7008ZM12.8469 12.5913C12.8703 12.6327 12.9095 12.6628 12.9554 12.6749C13.0014 12.6869 13.0503 12.6799 13.091 12.6554C13.1538 12.619 13.1884 12.5483 13.1786 12.4764C13.1689 12.4046 13.1168 12.3456 13.0466 12.3272C12.9764 12.3088 12.9021 12.3346 12.8583 12.3924C12.8146 12.4503 12.8101 12.5288 12.8469 12.5913Z" stroke="url(#paint0_linear_227_35673)" stroke-width="1.5" stroke-linecap="round" stroke-linejoin="round"/>
<defs>
<linearGradient id="paint0_linear_227_35673" x1="5.39288" y1="3.00562" x2="5.39288" y2="17.7954" gradientUnits="userSpaceOnUse">
<stop stop-color="#F53183"/>
<stop offset="1" stop-color="#FDA70F"/>
</linearGradient>
</defs>
</svg>
