<svg width="32" height="32" viewBox="0 0 32 32" fill="none" xmlns="http://www.w3.org/2000/svg">
<path d="M14.2335 19.1494L14.3588 23.9041C14.6588 25.7081 13.2681 27.3494 11.4401 27.3494C9.99347 27.3494 8.7588 26.3041 8.52147 24.8761L8.23347 19.1494M8.23347 19.1494H16.3655M8.23347 19.1494C5.74814 19.1494 3.73347 17.1348 3.73347 14.6494C3.73347 13.3941 4.7714 12.0163 5.60039 11.2M26.4004 26L5.60039 11.2M2.40039 8.80005L5.60039 11.2" stroke="white" stroke-width="2" stroke-linecap="round" stroke-linejoin="round"/>
<path d="M18.3414 10.0026L25.0013 4.90399C25.9987 4.23999 27.3333 4.95466 27.3333 6.15332V22.6865M18.3414 10.0026L18.4 16M18.3414 10.0026L8.80005 10" stroke="white" stroke-width="2" stroke-linecap="round" stroke-linejoin="round"/>
</svg>
