<svg width="24" height="24" viewBox="0 0 24 24" fill="none" xmlns="http://www.w3.org/2000/svg">
<path d="M14.0613 18.4421C14.6473 19.0281 14.6473 19.9781 14.0613 20.564C13.4754 21.1499 12.5254 21.1499 11.9395 20.564C11.3535 19.9781 11.3535 19.0281 11.9395 18.4421C12.2208 18.1606 12.6024 18.0024 13.0004 18.0024C13.3984 18.0024 13.78 18.1606 14.0613 18.4421" stroke="white" stroke-width="1.5" stroke-linecap="round" stroke-linejoin="round"/>
<path d="M19.5637 17.4418C20.1496 18.0277 20.1496 18.9777 19.5637 19.5636C18.9777 20.1496 18.0277 20.1496 17.4418 19.5636C16.8558 18.9777 16.8558 18.0277 17.4418 17.4418C17.7231 17.1602 18.1047 17.0021 18.5027 17.0021C18.9007 17.0021 19.2823 17.1602 19.5637 17.4418" stroke="white" stroke-width="1.5" stroke-linecap="round" stroke-linejoin="round"/>
<path d="M3.99662 18.0025V18.0025C3.99221 16.9398 4.41238 15.9194 5.1638 15.168C5.91523 14.4165 6.93565 13.9964 7.99832 14.0008H11.1107" stroke="white" stroke-width="1.5" stroke-linecap="round" stroke-linejoin="round"/>
<circle cx="10.9996" cy="6.99788" r="4.00167" stroke="white" stroke-width="1.5" stroke-linecap="round" stroke-linejoin="round"/>
<path d="M14.5005 19.3725V14.9018C14.5003 14.4927 14.7496 14.1248 15.1298 13.9734L18.6312 12.5729C18.9393 12.4495 19.2885 12.4871 19.5634 12.6731C19.8382 12.8591 20.0028 13.1694 20.0028 13.5013V18.3528" stroke="white" stroke-width="1.5" stroke-linecap="round" stroke-linejoin="round"/>
</svg>
